<svg width="562" height="562" viewBox="0 0 562 562" fill="none" xmlns="http://www.w3.org/2000/svg">
<rect x="25" y="25" width="512" height="512" rx="25" fill="#DE1A26"/>
<path d="M358.317 276.113C368.783 294.612 377.805 338.387 330.162 365.497C282.519 392.607 279.582 422.795 284.068 434.5C274.434 424.408 260 398.591 274.351 374.092C290.796 346.02 358.317 319.577 319.448 263.343C319.448 249.31 319.793 232.905 312.342 221.601C311.801 220.878 311.263 220.141 310.728 219.388C311.303 220.101 311.841 220.84 312.342 221.601C326.522 240.54 343.002 249.969 358.317 276.113Z" fill="#F9F9FB"/>
<path d="M295.28 197.533C299.74 205.146 313.113 235.162 313.113 255.298C269.452 212.267 246.446 162.596 299.18 132.589C313.643 126.057 342.991 120.976 350.735 149.462C351.732 156.534 351.383 171.298 342.014 173.772C322.879 173.772 320.836 168.861 313.113 161.739C285.955 153.882 285.813 185.01 295.28 197.533Z" fill="#F9F9FB"/>
<path d="M354.081 151.613C356.672 161.144 349.596 172.61 345.361 176.661C360.509 180.661 360.642 200.264 358.815 209.566C387.518 181.277 367.618 159.144 354.081 151.613Z" fill="#F9F9FB"/>
<path d="M326.425 295.021C314.964 371.146 221.78 302.388 193.625 398.648C157.249 254.749 326.425 222.335 326.425 295.021Z" fill="#F9F9FB"/>
<path d="M263.933 394.227C264.354 379.679 270.683 369.136 272.782 365.497L258.876 365.497C256.979 368.082 249.605 383.896 263.933 394.227Z" fill="#F9F9FB"/>
<path d="M298.91 336.454C288.348 341.22 273.509 341.304 252.133 344.888C236.12 349.105 222.391 357.187 219.474 368.082C223.547 364.286 236.499 357.455 255.715 360.491C277.629 363.953 279.314 357.328 286.9 349.738C291.746 344.888 298.91 338.352 298.91 336.454Z" fill="#F9F9FB"/>
</svg>
