<svg width="449" height="745" viewBox="0 0 449 745" fill="none" xmlns="http://www.w3.org/2000/svg">
<path d="M412.149 360.646C437.552 405.513 459.449 511.684 343.818 577.435C228.187 643.187 221.058 716.403 231.947 744.792C208.565 720.315 173.533 657.699 208.364 598.28C248.274 530.197 412.149 466.063 317.815 329.677C317.815 295.64 318.651 255.854 300.569 228.438C299.255 226.683 297.948 224.895 296.651 223.07C298.047 224.799 299.351 226.59 300.569 228.438C334.984 274.37 374.98 297.239 412.149 360.646Z" fill="#DE1A26"/>
<path d="M259.159 170.064C269.982 188.527 302.438 261.327 302.438 310.164C196.472 205.799 140.637 85.3293 268.623 12.5523C303.725 -3.29072 374.953 -15.6134 393.749 53.4733C396.167 70.6266 395.32 106.433 372.584 112.434C326.142 112.434 321.184 100.522 302.438 83.2506C236.525 64.1931 236.18 139.691 259.159 170.064Z" fill="#DE1A26"/>
<path d="M401.87 58.6917C408.158 81.8079 390.985 109.617 380.705 119.44C417.471 129.143 417.793 176.688 413.359 199.247C483.021 130.637 434.725 76.9559 401.87 58.6917Z" fill="#DE1A26"/>
<path d="M334.748 406.507C306.931 591.135 80.7715 424.373 12.4396 657.837C-75.8472 308.831 334.748 230.216 334.748 406.507Z" fill="#DE1A26"/>
<path d="M183.077 647.116C184.1 611.83 199.46 586.261 204.556 577.435L170.804 577.435C166.202 583.704 148.303 622.058 183.077 647.116Z" fill="#DE1A26"/>
<path d="M267.968 506.996C242.335 518.556 206.318 518.758 154.44 527.451C115.574 537.679 82.2546 557.28 75.1743 583.704C85.0611 574.499 116.495 557.93 163.133 565.294C216.318 573.692 220.409 557.623 238.819 539.213C250.581 527.451 267.968 511.598 267.968 506.996Z" fill="#DE1A26"/>
</svg>
