<svg width="1497" height="838" viewBox="0 0 1497 838" fill="none" xmlns="http://www.w3.org/2000/svg">
<path d="M874.698 242.04C891.784 272.169 906.512 343.464 828.738 387.617C750.964 431.771 746.169 480.936 753.493 500C737.766 483.564 714.203 441.516 737.631 401.615C764.475 355.896 874.698 312.829 811.248 221.243C811.248 198.387 811.81 171.67 799.648 153.26C798.764 152.082 797.886 150.881 797.013 149.655C797.952 150.817 798.829 152.019 799.648 153.26C822.796 184.104 849.697 199.461 874.698 242.04Z" fill="#DE1A26"/>
<path d="M771.796 114.061C779.075 126.459 800.905 175.346 800.905 208.141C729.632 138.057 692.077 57.16 778.161 8.28906C801.771 -2.34978 849.68 -10.6246 862.322 35.7682C863.948 47.287 863.379 71.3318 848.086 75.3611C816.849 75.3611 813.514 67.3625 800.905 55.7642C756.572 42.9667 756.34 93.6647 771.796 114.061Z" fill="#DE1A26"/>
<path d="M867.784 39.2724C872.014 54.7954 860.463 73.4693 853.548 80.0661C878.277 86.5816 878.494 118.509 875.512 133.658C922.367 87.5849 889.883 51.5372 867.784 39.2724Z" fill="#DE1A26"/>
<path d="M822.637 272.836C803.928 396.817 651.811 284.834 605.851 441.609C546.469 207.245 822.637 154.454 822.637 272.836Z" fill="#DE1A26"/>
<path d="M720.623 434.409C721.311 410.714 731.642 393.544 735.069 387.617L712.368 387.617C709.272 391.827 697.233 417.582 720.623 434.409Z" fill="#DE1A26"/>
<path d="M777.721 340.316C760.48 348.079 736.255 348.214 701.361 354.052C675.22 360.92 652.809 374.083 648.047 391.827C654.696 385.646 675.839 374.519 707.208 379.464C742.98 385.103 745.732 374.313 758.115 361.951C766.026 354.052 777.721 343.407 777.721 340.316Z" fill="#DE1A26"/>
<path d="M101.248 605.401C93.9286 605.401 86.0867 605.633 77.722 606.098C59.8308 607.027 46.4706 609.292 37.6411 612.892C28.9279 616.492 21.725 622.706 16.0323 631.533C10.8044 639.663 6.79632 650.697 4.00808 664.634L0 664.286L3.13676 600H238.917L242.053 664.286L238.045 664.634C234.909 648.49 229.971 636.295 223.233 628.049C216.611 619.686 206.91 613.705 194.131 610.105C183.326 606.969 165.029 605.401 139.237 605.401V783.101C139.237 794.948 139.876 803.775 141.154 809.582C142.548 815.273 145.046 819.977 148.648 823.693C151.901 827.062 155.56 829.501 159.626 831.01C163.809 832.52 169.211 833.449 175.833 833.798V837.805H64.4779V833.798C71.2161 833.449 76.6183 832.52 80.6845 831.01C84.8668 829.501 88.5845 827.062 91.8374 823.693C95.4389 819.977 97.8786 815.273 99.1565 809.582C100.551 803.891 101.248 795.064 101.248 783.101V605.401Z" fill="#0F0F0F"/>
<path d="M273.386 600H382.999V604.007C372.775 604.007 365.805 604.762 362.087 606.272C358.95 607.666 356.394 609.93 354.419 613.066C352.444 616.202 351.457 619.744 351.457 623.693C351.457 628.571 353.316 635.308 357.033 643.902L361.564 654.704L415.76 787.108L453.576 672.997C458.455 658.362 460.895 647.445 460.895 640.244C460.895 634.901 459.907 629.733 457.932 624.739C456.074 619.628 453.576 615.505 450.439 612.369C447.418 609.35 443.933 607.201 439.983 605.923C436.149 604.646 431.212 604.007 425.171 604.007V600H537.223V604.007C530.368 604.007 525.373 604.239 522.236 604.704C519.216 605.168 516.369 606.156 513.697 607.666C510.212 609.756 507.365 612.776 505.158 616.725C503.067 620.557 502.021 624.739 502.021 629.268C502.021 633.449 503.648 640.708 506.901 651.045L549.77 789.199L597.693 671.603C605.128 653.6 608.846 639.663 608.846 629.791C608.846 619.454 605.418 612.137 598.564 607.84C594.382 605.285 588.05 604.007 579.569 604.007V600H660.254V604.007C652.47 604.82 646.545 606.33 642.479 608.537C638.529 610.627 634.579 614.518 630.629 620.209C624.82 628.339 617.559 643.031 608.846 664.286L537.223 837.805H530.078L468.04 652.265L405.13 837.805H397.288L319.392 650.348L314.164 637.631C310.563 629.036 307.542 622.822 305.102 618.99C302.663 615.157 299.7 612.137 296.215 609.93C293.427 608.072 290.406 606.736 287.153 605.923C283.9 605.11 279.311 604.472 273.386 604.007V600Z" fill="#0F0F0F"/>
<path d="M1000.35 631.533V783.101C1000.35 795.064 1000.99 803.891 1002.27 809.582C1003.66 815.273 1006.16 819.977 1009.76 823.693C1013.01 827.062 1016.67 829.501 1020.74 831.01C1024.92 832.52 1030.32 833.449 1036.94 833.798V837.805H956.608V833.798C963.23 833.449 968.574 832.52 972.64 831.01C976.823 829.501 980.54 827.062 983.793 823.693C987.395 819.977 989.834 815.273 991.112 809.582C992.506 803.775 993.203 794.948 993.203 783.101V654.53C993.203 642.799 992.506 634.088 991.112 628.397C989.834 622.59 987.395 617.828 983.793 614.111C980.656 610.743 976.997 608.304 972.815 606.794C968.748 605.285 963.346 604.355 956.608 604.007V600H1023.7L1165.2 780.488V654.704C1165.2 642.741 1164.51 633.914 1163.11 628.223C1161.83 622.532 1159.39 617.828 1155.79 614.111C1152.54 610.743 1148.82 608.304 1144.64 606.794C1140.57 605.285 1135.23 604.355 1128.61 604.007V600H1208.94V604.007C1197.33 604.007 1188.26 607.375 1181.76 614.111C1178.16 617.828 1175.66 622.59 1174.26 628.397C1172.99 634.088 1172.35 642.799 1172.35 654.53V837.805H1164.51L1000.35 631.533Z" fill="#0F0F0F"/>
<path d="M1356.16 605.401C1348.84 605.401 1341 605.633 1332.64 606.098C1314.74 607.027 1301.38 609.292 1292.56 612.892C1283.84 616.492 1276.64 622.706 1270.95 631.533C1265.72 639.663 1261.71 650.697 1258.92 664.634L1254.91 664.286L1258.05 600H1493.83L1496.97 664.286L1492.96 664.634C1489.82 648.49 1484.89 636.295 1478.15 628.049C1471.52 619.686 1461.82 613.705 1449.04 610.105C1438.24 606.969 1419.94 605.401 1394.15 605.401V783.101C1394.15 794.948 1394.79 803.775 1396.07 809.582C1397.46 815.273 1399.96 819.977 1403.56 823.693C1406.81 827.062 1410.47 829.501 1414.54 831.01C1418.72 832.52 1424.12 833.449 1430.75 833.798V837.805H1319.39V833.798C1326.13 833.449 1331.53 832.52 1335.6 831.01C1339.78 829.501 1343.5 827.062 1346.75 823.693C1350.35 819.977 1352.79 815.273 1354.07 809.582C1355.46 803.891 1356.16 795.064 1356.16 783.101V605.401Z" fill="#0F0F0F"/>
<path fill-rule="evenodd" clip-rule="evenodd" d="M888.854 657.491L885.891 600H698.557V604.007C705.295 604.355 710.697 605.285 714.764 606.794C718.946 608.304 722.605 610.743 725.742 614.111C729.344 617.828 731.783 622.59 733.061 628.397C734.455 634.088 735.153 642.857 735.153 654.704V783.101C735.153 794.948 734.455 803.775 733.061 809.582C731.783 815.273 729.344 819.977 725.742 823.693C722.489 827.062 718.772 829.501 714.589 831.01C710.523 832.52 705.179 833.449 698.557 833.798V837.805H906.455L908.72 768.467L904.712 768.293C902.505 778.746 900.065 787.166 897.393 793.554C894.837 799.942 891.468 805.633 887.285 810.627C881.36 818.06 873.693 823.577 864.283 827.178C854.872 830.662 843.197 832.404 829.255 832.404C816.011 832.404 805.323 830.488 797.191 826.655C789.174 822.706 783.191 816.551 779.241 808.188C776.918 803.31 775.35 797.271 774.536 790.07C773.723 782.753 773.316 771.138 773.316 755.226V715.331V709.93V605.401H813.223C825.538 605.401 835.413 606.272 842.848 608.014C850.283 609.64 856.731 612.485 862.191 616.551C868.813 621.429 873.867 627.062 877.352 633.449C880.838 639.837 883.335 647.909 884.846 657.666L888.854 657.491Z" fill="#0F0F0F"/>
<path d="M783.772 709.93H773.316V715.331H783.25C791.847 715.331 798.933 716.202 804.51 717.944C810.086 719.686 814.617 722.416 818.102 726.132C821.704 729.965 824.492 734.611 826.467 740.07C828.558 745.528 830.127 752.729 831.172 761.672H835.18L835.877 668.293L831.869 668.118C830.824 677.062 829.488 683.856 827.861 688.502C826.351 693.031 823.969 696.98 820.716 700.348C817.347 703.949 812.991 706.446 807.647 707.84C802.302 709.233 794.344 709.93 783.772 709.93Z" fill="#0F0F0F"/>
</svg>
