<svg width="1497" height="838" viewBox="0 0 1497 838" fill="none" xmlns="http://www.w3.org/2000/svg">
<path d="M242.069 664.383L238.062 664.732C234.925 648.588 229.987 636.393 223.249 628.147C216.627 619.784 206.926 613.803 194.146 610.202C183.342 607.067 165.045 605.498 139.254 605.498V783.198C139.254 795.045 139.893 803.873 141.171 809.68C142.565 815.371 145.063 820.075 148.664 823.791C151.917 827.159 155.576 829.599 159.643 831.109C163.825 832.618 169.227 833.547 175.849 833.896V837.903H64.4941V833.896C71.232 833.547 76.6341 832.618 80.7002 831.109C84.8825 829.599 88.6006 827.159 91.8535 823.791C95.4549 820.075 97.8949 815.371 99.1729 809.68C100.567 803.989 101.264 795.161 101.264 783.198V605.498C93.9446 605.498 86.1029 605.731 77.7383 606.196C59.8472 607.125 46.4866 609.389 37.6572 612.99C28.944 616.59 21.7415 622.804 16.0488 631.631C10.8209 639.761 6.81265 650.795 4.02441 664.732L0.015625 664.383L3.15332 600.098H238.933L242.069 664.383ZM383.015 604.105C372.792 604.105 365.821 604.86 362.104 606.369C358.967 607.763 356.411 610.028 354.436 613.164C352.461 616.3 351.473 619.842 351.473 623.791C351.473 628.669 353.332 635.406 357.05 644L361.58 654.802L415.776 787.205L453.592 673.094C458.471 658.46 460.911 647.543 460.911 640.342C460.911 634.999 459.923 629.83 457.948 624.836C456.089 619.726 453.592 615.603 450.455 612.467C447.434 609.447 443.949 607.298 439.999 606.021C436.165 604.743 431.228 604.105 425.187 604.105V600.098H537.239V604.105C530.385 604.105 525.389 604.337 522.252 604.802C519.231 605.267 516.385 606.253 513.713 607.763C510.228 609.854 507.381 612.874 505.174 616.823C503.083 620.655 502.037 624.837 502.037 629.366C502.037 633.548 503.664 640.806 506.917 651.143L549.786 789.296L597.709 671.7C605.144 653.698 608.861 639.761 608.861 629.889C608.861 619.552 605.434 612.235 598.58 607.938C594.398 605.383 588.066 604.105 579.585 604.105V600.098H660.27V604.105C652.486 604.918 646.561 606.427 642.495 608.634C638.545 610.725 634.595 614.616 630.645 620.307C624.836 628.437 617.574 643.129 608.861 664.383L537.239 837.903H530.094L468.056 652.363L405.146 837.903H397.305L319.408 650.447L314.181 637.729C310.579 629.134 307.558 622.92 305.118 619.087C302.679 615.255 299.716 612.235 296.231 610.029C293.443 608.17 290.422 606.834 287.169 606.021C283.916 605.208 279.327 604.569 273.402 604.105V600.098H383.015V604.105ZM888.87 657.589L884.862 657.763C883.352 648.007 880.853 639.935 877.368 633.547C873.883 627.159 868.83 621.527 862.208 616.649C856.748 612.584 850.3 609.738 842.864 608.112C835.429 606.369 825.554 605.498 813.239 605.498H773.333V710.029H783.788C794.36 710.029 802.319 709.331 807.663 707.938C813.007 706.544 817.363 704.047 820.732 700.447C823.985 697.078 826.367 693.129 827.877 688.6C829.503 683.954 830.84 677.159 831.886 668.216L835.894 668.391L835.196 761.77H831.188C830.143 752.827 828.575 745.626 826.483 740.167C824.508 734.709 821.72 730.062 818.118 726.23C814.633 722.513 810.102 719.784 804.526 718.042C798.95 716.3 791.863 715.429 783.266 715.429H773.333V755.324C773.333 771.236 773.74 782.85 774.553 790.167C775.366 797.368 776.934 803.408 779.258 808.286C783.208 816.649 789.191 822.804 797.207 826.753C805.339 830.586 816.028 832.502 829.271 832.502C843.213 832.502 854.889 830.76 864.299 827.276C873.709 823.675 881.377 818.158 887.302 810.725C891.484 805.731 894.853 800.039 897.409 793.652C900.081 787.264 902.521 778.844 904.729 768.391L908.736 768.565L906.471 837.903H698.573V833.896C705.195 833.547 710.539 832.618 714.605 831.109C718.788 829.599 722.506 827.159 725.759 823.791C729.36 820.075 731.799 815.371 733.077 809.68C734.471 803.873 735.169 795.045 735.169 783.198V654.802C735.169 642.956 734.471 634.186 733.077 628.495C731.799 622.688 729.36 617.926 725.759 614.209C722.622 610.841 718.962 608.402 714.779 606.892C710.713 605.382 705.311 604.453 698.573 604.105V600.098H885.907L888.87 657.589ZM1165.22 780.585V654.802C1165.22 642.839 1164.52 634.012 1163.13 628.321C1161.85 622.63 1159.41 617.926 1155.81 614.209C1152.56 610.841 1148.84 608.402 1144.66 606.892C1140.59 605.382 1135.24 604.453 1128.62 604.105V600.098H1208.96V604.105C1197.34 604.105 1188.28 607.473 1181.77 614.209C1178.17 617.926 1175.67 622.688 1174.28 628.495C1173 634.186 1172.36 642.897 1172.36 654.627V837.903H1164.52L1000.36 631.631V783.198C1000.36 795.161 1001 803.989 1002.28 809.68C1003.68 815.371 1006.17 820.075 1009.77 823.791C1013.03 827.159 1016.69 829.599 1020.75 831.109C1024.94 832.619 1030.34 833.547 1036.96 833.896V837.903H956.624V833.896C963.246 833.547 968.59 832.618 972.656 831.109C976.839 829.599 980.557 827.159 983.81 823.791C987.411 820.075 989.85 815.371 991.128 809.68C992.522 803.873 993.22 795.045 993.22 783.198V654.627C993.22 642.897 992.522 634.186 991.128 628.495C989.85 622.688 987.411 617.926 983.81 614.209C980.673 610.841 977.013 608.402 972.831 606.892C968.765 605.382 963.362 604.453 956.624 604.105V600.098H1023.72L1165.22 780.585ZM1496.98 664.383L1492.98 664.732C1489.84 648.588 1484.9 636.393 1478.16 628.147C1471.54 619.784 1461.84 613.803 1449.06 610.202C1438.26 607.067 1419.96 605.498 1394.17 605.498V783.198C1394.17 795.045 1394.81 803.873 1396.08 809.68C1397.48 815.371 1399.98 820.075 1403.58 823.791C1406.83 827.159 1410.49 829.599 1414.56 831.109C1418.74 832.618 1424.14 833.547 1430.76 833.896V837.903H1319.41V833.896C1326.15 833.547 1331.55 832.618 1335.61 831.109C1339.8 829.599 1343.51 827.159 1346.77 823.791C1350.37 820.075 1352.81 815.371 1354.09 809.68C1355.48 803.989 1356.18 795.161 1356.18 783.198V605.498C1348.86 605.498 1341.02 605.731 1332.65 606.196C1314.76 607.125 1301.4 609.389 1292.57 612.99C1283.86 616.59 1276.66 622.804 1270.96 631.631C1265.74 639.761 1261.73 650.795 1258.94 664.732L1254.93 664.383L1258.07 600.098H1493.85L1496.98 664.383ZM797.029 149.753C797.968 150.914 798.845 152.117 799.664 153.358C822.811 184.202 849.713 199.559 874.714 242.138C891.8 272.267 906.528 343.562 828.754 387.715C750.98 431.868 746.185 481.034 753.509 500.098C737.782 483.661 714.219 441.613 737.646 401.713C764.491 355.994 874.714 312.927 811.265 221.341C811.265 198.485 811.826 171.768 799.664 153.358C798.78 152.18 797.902 150.979 797.029 149.753ZM605.867 441.706C546.485 207.343 822.653 154.552 822.653 272.934C803.944 396.915 651.828 284.932 605.867 441.706ZM735.085 387.715C731.658 393.642 721.327 410.812 720.639 434.507C697.249 417.68 709.288 391.925 712.384 387.715H735.085ZM777.737 340.413C777.737 343.504 766.042 354.15 758.131 362.048C745.748 374.411 742.997 385.201 707.225 379.562C675.855 374.617 654.712 385.744 648.062 391.925C652.825 374.181 675.236 361.018 701.377 354.15C736.271 348.312 760.496 348.176 777.737 340.413ZM778.177 8.38696C801.787 -2.25185 849.696 -10.5269 862.338 35.8655C863.965 47.3843 863.394 71.4299 848.102 75.4592C816.865 75.4592 813.53 67.4599 800.922 55.8616C756.589 43.0642 756.356 93.7622 771.812 114.158C779.091 126.557 800.922 175.444 800.922 208.239C729.649 138.155 692.093 57.2579 778.177 8.38696ZM867.8 39.3704C889.899 51.6352 922.382 87.6824 875.527 133.755C878.51 118.606 878.293 86.6799 853.564 80.1643C860.479 73.5676 872.03 54.8933 867.8 39.3704Z" fill="#F9F9FB"/>
</svg>
