<svg width="1753" height="300" viewBox="0 0 1753 300" fill="none" xmlns="http://www.w3.org/2000/svg">
<path d="M119.585 89.7932C120.148 90.4899 120.674 91.2112 121.165 91.9553C135.038 110.462 151.161 119.676 166.145 145.224C176.385 163.301 185.212 206.079 138.599 232.571C91.9861 259.062 89.1123 288.562 93.502 300C84.0763 290.138 69.9541 264.909 83.9951 240.969C100.084 213.538 166.144 187.697 128.117 132.746C128.117 119.033 128.454 103.002 121.165 91.9553C120.635 91.2485 120.108 90.5285 119.585 89.7932ZM498.054 95.3831L494.045 95.7317C490.908 79.5878 485.971 67.3929 479.232 59.1467C472.61 50.7844 462.91 44.8029 450.131 41.2024C439.326 38.0665 421.028 36.4983 395.237 36.4983V214.198C395.237 226.045 395.876 234.873 397.154 240.68C398.548 246.371 401.046 251.075 404.647 254.791C407.9 258.159 411.56 260.598 415.626 262.108C419.808 263.618 425.211 264.547 431.833 264.896V268.903H320.478V264.896C327.216 264.547 332.618 263.618 336.685 262.108C340.867 260.598 344.584 258.159 347.837 254.791C351.438 251.075 353.878 246.371 355.156 240.68C356.55 234.989 357.248 226.161 357.248 214.198V36.4983C349.929 36.4983 342.086 36.731 333.722 37.1956C315.831 38.1247 302.47 40.3891 293.641 43.9895C284.928 47.59 277.725 53.8043 272.032 62.6311C266.804 70.7611 262.796 81.7946 260.008 95.7317L256 95.3831L259.137 31.0979H494.917L498.054 95.3831ZM638.999 35.1047C628.776 35.1047 621.805 35.8595 618.087 37.3694C614.95 38.7631 612.394 41.0284 610.419 44.1643C608.444 47.3001 607.457 50.8425 607.457 54.7913C607.457 59.6693 609.316 66.4057 613.033 75.0002L617.564 85.801L671.761 218.205L709.576 104.094C714.455 89.4603 716.894 78.5429 716.895 71.342C716.895 65.9994 715.908 60.8304 713.933 55.8362C712.074 50.7259 709.575 46.6029 706.438 43.467C703.418 40.4475 699.933 38.2983 695.983 37.0208C692.15 35.7432 687.212 35.1048 681.171 35.1047V31.0979H793.223V35.1047C786.369 35.1047 781.373 35.3365 778.236 35.801C775.216 36.2656 772.369 37.2532 769.697 38.7629C766.212 40.8535 763.366 43.8736 761.158 47.8225C759.067 51.6551 758.022 55.836 758.021 60.3655C758.021 64.5466 759.648 71.8061 762.9 82.1428L805.77 220.296L853.692 102.7C861.128 84.6983 864.846 70.7611 864.846 60.8889C864.846 50.5521 861.418 43.2351 854.563 38.9377C850.381 36.3827 844.05 35.1048 835.569 35.1047V31.0979H916.254V35.1047C908.47 35.9177 902.545 37.4273 898.479 39.634C894.529 41.7246 890.579 45.6159 886.629 51.3069C880.82 59.4369 873.559 74.1289 864.846 95.3831L793.223 268.903H786.078L724.04 83.3625L661.13 268.903H653.288L575.392 81.4465L570.164 68.7288C566.563 60.1342 563.542 53.9199 561.103 50.0872C558.663 46.2544 555.7 43.2343 552.215 41.0276C549.427 39.1694 546.406 37.8338 543.153 37.0208C539.9 36.2077 535.311 35.5693 529.386 35.1047V31.0979H638.999V35.1047ZM1144.85 88.5891L1140.85 88.7629C1139.34 79.007 1136.84 70.935 1133.35 64.5471C1129.87 58.1593 1124.81 52.5267 1118.19 47.6487C1112.73 43.5836 1106.28 40.7376 1098.85 39.1116C1091.41 37.3694 1081.54 36.4983 1069.22 36.4983H1029.32V141.028H1039.77C1050.34 141.028 1058.3 140.331 1063.65 138.938C1068.99 137.544 1073.35 135.047 1076.72 131.447C1079.97 128.078 1082.35 124.129 1083.86 119.6C1085.49 114.954 1086.82 108.159 1087.87 99.2161L1091.88 99.3899L1091.18 192.77H1087.17C1086.13 183.827 1084.56 176.626 1082.47 171.167C1080.49 165.709 1077.7 161.062 1074.1 157.23C1070.62 153.513 1066.09 150.784 1060.51 149.042C1054.93 147.3 1047.85 146.429 1039.25 146.429H1029.32V186.324C1029.32 202.236 1029.72 213.85 1030.54 221.167C1031.35 228.368 1032.92 234.407 1035.24 239.285C1039.19 247.648 1045.17 253.804 1053.19 257.753C1061.32 261.586 1072.01 263.502 1085.25 263.502C1099.2 263.502 1110.87 261.76 1120.28 258.276C1129.69 254.675 1137.36 249.158 1143.29 241.725C1147.47 236.731 1150.84 231.04 1153.39 224.652C1156.06 218.264 1158.5 209.843 1160.71 199.39L1164.72 199.565L1162.45 268.903H954.557V264.896C961.179 264.547 966.523 263.618 970.589 262.108C974.771 260.598 978.489 258.159 981.742 254.791C985.344 251.075 987.784 246.371 989.062 240.68C990.456 234.873 991.152 226.045 991.152 214.198V85.801C991.152 73.9549 990.456 65.1864 989.062 59.4954C987.784 53.6882 985.344 48.9258 981.742 45.2092C978.605 41.8411 974.946 39.4017 970.764 37.8918C966.698 36.382 961.295 35.4532 954.557 35.1047V31.0979H1141.89L1144.85 88.5891ZM1421.2 211.585V85.801C1421.2 73.8384 1420.51 65.0115 1419.11 59.3206C1417.83 53.6295 1415.39 48.9258 1411.79 45.2092C1408.54 41.8411 1404.82 39.4017 1400.64 37.8918C1396.57 36.382 1391.23 35.4532 1384.61 35.1047V31.0979H1464.94V35.1047C1453.33 35.1047 1444.26 38.4729 1437.76 45.2092C1434.16 48.9258 1431.66 53.6882 1430.26 59.4954C1428.99 65.1864 1428.35 73.8969 1428.35 85.6272V268.903H1420.51L1256.35 62.6311V214.198C1256.35 226.161 1256.99 234.989 1258.26 240.68C1259.66 246.371 1262.16 251.075 1265.76 254.791C1269.01 258.159 1272.67 260.598 1276.74 262.108C1280.92 263.618 1286.32 264.547 1292.94 264.896V268.903H1212.61V264.896C1219.23 264.547 1224.57 263.617 1228.64 262.108C1232.82 260.598 1236.54 258.159 1239.79 254.791C1243.39 251.075 1245.83 246.371 1247.11 240.68C1248.51 234.873 1249.2 226.045 1249.2 214.198V85.6272C1249.2 73.897 1248.51 65.1864 1247.11 59.4954C1245.83 53.6882 1243.39 48.9258 1239.79 45.2092C1236.66 41.8411 1233 39.4017 1228.81 37.8918C1224.75 36.382 1219.35 35.4532 1212.61 35.1047V31.0979H1279.7L1421.2 211.585ZM1752.97 95.3831L1748.96 95.7317C1745.82 79.5878 1740.88 67.3929 1734.15 59.1467C1727.52 50.7844 1717.82 44.8029 1705.04 41.2024C1694.24 38.0665 1675.94 36.4983 1650.15 36.4983V214.198C1650.15 226.045 1650.79 234.873 1652.07 240.68C1653.46 246.371 1655.96 251.075 1659.56 254.791C1662.81 258.159 1666.47 260.598 1670.54 262.108C1674.72 263.618 1680.12 264.547 1686.75 264.896V268.903H1575.39V264.896C1582.13 264.547 1587.53 263.618 1591.6 262.108C1595.78 260.598 1599.5 258.159 1602.75 254.791C1606.35 251.075 1608.79 246.371 1610.07 240.68C1611.46 234.989 1612.16 226.161 1612.16 214.198V36.4983C1604.84 36.4983 1597 36.731 1588.64 37.1956C1570.74 38.1247 1557.38 40.389 1548.55 43.9895C1539.84 47.59 1532.64 53.8042 1526.95 62.6311C1521.72 70.7611 1517.71 81.7946 1514.92 95.7317L1510.91 95.3831L1514.05 31.0979H1749.83L1752.97 95.3831ZM5.01465 264.965C-30.5751 124.347 134.942 92.6725 134.942 163.701C123.729 238.09 32.5606 170.9 5.01465 264.965ZM82.46 232.571C80.4059 236.127 74.2141 246.429 73.8018 260.646C59.7835 250.55 66.9991 235.096 68.8545 232.571H82.46ZM108.022 204.19C108.022 206.044 101.014 212.431 96.2725 217.17C88.851 224.588 87.2014 231.062 65.7617 227.679C46.9608 224.712 34.2893 231.387 30.3037 235.096C33.158 224.449 46.5896 216.552 62.2568 212.431C83.1698 208.928 97.6892 208.847 108.022 204.19ZM108.286 4.97388C122.437 -1.40943 151.151 -6.37451 158.728 21.4612C159.702 28.3725 159.361 42.7994 150.195 45.217C131.474 45.217 129.475 40.4173 121.918 33.4583C95.3474 25.78 95.2086 56.1991 104.472 68.4368C108.835 75.876 121.918 105.207 121.918 124.884C79.2015 82.8341 56.6934 34.2964 108.286 4.97388ZM162.001 23.5637C175.246 30.9227 194.714 52.5512 166.633 80.1946C168.42 71.105 168.29 51.9486 153.469 48.0393C157.613 44.0812 164.536 32.8773 162.001 23.5637Z" fill="#F9F9FB"/>
</svg>
