<svg width="1853" height="400" viewBox="0 0 1853 400" fill="none" xmlns="http://www.w3.org/2000/svg">
<rect width="1852.97" height="400" rx="25" fill="#0F0F0F"/>
<path d="M216.145 195.224C226.385 213.301 235.212 256.079 188.599 282.57C141.986 309.062 139.112 338.562 143.502 350C134.076 340.138 119.954 314.909 133.995 290.969C150.084 263.538 216.145 237.697 178.117 182.746C178.117 169.032 178.454 153.002 171.165 141.956C170.635 141.249 170.108 140.529 169.585 139.793C170.148 140.49 170.674 141.212 171.165 141.956C185.038 160.462 201.161 169.676 216.145 195.224Z" fill="#F9F9FB"/>
<path d="M154.472 118.437C158.835 125.875 171.918 155.207 171.918 174.884C129.201 132.834 106.693 84.296 158.287 54.9734C172.437 48.5901 201.15 43.6252 208.727 71.4609C209.702 78.3722 209.361 92.7991 200.195 95.2167C181.474 95.2167 179.475 90.4175 171.918 83.4585C145.347 75.78 145.209 106.199 154.472 118.437Z" fill="#F9F9FB"/>
<path d="M212.001 73.5635C214.536 82.8772 207.613 94.0816 203.469 98.0397C218.29 101.949 218.42 121.105 216.632 130.195C244.714 102.551 225.246 80.9223 212.001 73.5635Z" fill="#F9F9FB"/>
<path d="M184.943 213.702C173.729 288.09 82.5604 220.9 55.0146 314.965C19.4246 174.347 184.943 142.672 184.943 213.702Z" fill="#F9F9FB"/>
<path d="M123.802 310.646C124.214 296.429 130.406 286.126 132.46 282.57L118.854 282.57C116.999 285.096 109.784 300.549 123.802 310.646Z" fill="#F9F9FB"/>
<path d="M158.023 254.19C147.69 258.847 133.171 258.929 112.257 262.431C96.59 266.552 83.1583 274.45 80.3041 285.096C84.2897 281.387 96.961 274.712 115.762 277.679C137.202 281.062 138.851 274.588 146.272 267.17C151.014 262.431 158.023 256.044 158.023 254.19Z" fill="#F9F9FB"/>
<path d="M407.248 86.4984C399.929 86.4984 392.087 86.7306 383.722 87.1952C365.831 88.1244 352.471 90.3892 343.641 93.9896C334.928 97.5901 327.725 103.804 322.032 112.631C316.804 120.761 312.796 131.795 310.008 145.732L306 145.383L309.137 81.0977H544.917L548.053 145.383L544.045 145.732C540.909 129.588 535.971 117.393 529.233 109.146C522.611 100.784 512.91 94.8027 500.131 91.2022C489.326 88.0663 471.029 86.4984 445.237 86.4984V264.199C445.237 276.045 445.876 284.872 447.154 290.68C448.548 296.371 451.046 301.074 454.648 304.791C457.901 308.159 461.56 310.598 465.626 312.108C469.809 313.618 475.211 314.547 481.833 314.896V318.903H370.478V314.896C377.216 314.547 382.618 313.618 386.684 312.108C390.867 310.598 394.584 308.159 397.837 304.791C401.439 301.074 403.879 296.371 405.157 290.68C406.551 284.988 407.248 276.162 407.248 264.199V86.4984Z" fill="#F9F9FB"/>
<path d="M579.386 81.0977H688.999V85.1046C678.775 85.1046 671.805 85.8596 668.087 87.3694C664.95 88.7632 662.394 91.028 660.419 94.1639C658.444 97.2997 657.457 100.842 657.457 104.791C657.457 109.669 659.316 116.405 663.033 125L667.564 135.801L721.76 268.206L759.576 154.094C764.455 139.46 766.895 128.542 766.895 121.342C766.895 115.999 765.907 110.831 763.932 105.836C762.074 100.726 759.576 96.6029 756.439 93.467C753.418 90.4473 749.933 88.2986 745.983 87.021C742.149 85.7434 737.212 85.1046 731.171 85.1046V81.0977H843.223V85.1046C836.368 85.1046 831.373 85.3369 828.236 85.8015C825.216 86.2661 822.369 87.2533 819.697 88.7632C816.212 90.8538 813.365 93.8735 811.158 97.8224C809.067 101.655 808.021 105.836 808.021 110.366C808.021 114.547 809.648 121.806 812.901 132.143L855.77 270.296L903.693 152.7C911.128 134.698 914.846 120.761 914.846 110.889C914.846 100.552 911.418 93.2347 904.564 88.9374C900.382 86.3822 894.05 85.1046 885.569 85.1046V81.0977H966.254V85.1046C958.47 85.9176 952.545 87.4275 948.479 89.6342C944.529 91.7248 940.579 95.6157 936.629 101.307C930.82 109.437 923.559 124.129 914.846 145.383L843.223 318.903H836.078L774.04 133.362L711.13 318.903H703.288L625.392 131.446L620.164 118.728C616.563 110.134 613.542 103.92 611.102 100.087C608.663 96.2545 605.7 93.2347 602.215 91.028C599.427 89.1697 596.406 87.834 593.153 87.021C589.9 86.208 585.311 85.5692 579.386 85.1046V81.0977Z" fill="#F9F9FB"/>
<path d="M1306.35 112.631V264.199C1306.35 276.162 1306.99 284.988 1308.27 290.68C1309.66 296.371 1312.16 301.074 1315.76 304.791C1319.01 308.159 1322.67 310.598 1326.74 312.108C1330.92 313.618 1336.32 314.547 1342.94 314.896V318.903H1262.61V314.896C1269.23 314.547 1274.57 313.618 1278.64 312.108C1282.82 310.598 1286.54 308.159 1289.79 304.791C1293.39 301.074 1295.83 296.371 1297.11 290.68C1298.51 284.872 1299.2 276.045 1299.2 264.199V135.627C1299.2 123.897 1298.51 115.186 1297.11 109.495C1295.83 103.688 1293.39 98.9258 1289.79 95.2092C1286.66 91.841 1283 89.402 1278.81 87.8921C1274.75 86.3822 1269.35 85.4531 1262.61 85.1046V81.0977H1329.7L1471.2 261.585V135.801C1471.2 123.839 1470.51 115.012 1469.11 109.321C1467.83 103.63 1465.39 98.9258 1461.79 95.2092C1458.54 91.841 1454.82 89.402 1450.64 87.8921C1446.57 86.3822 1441.23 85.4531 1434.61 85.1046V81.0977H1514.94V85.1046C1503.33 85.1046 1494.26 88.4728 1487.76 95.2092C1484.16 98.9258 1481.66 103.688 1480.26 109.495C1478.99 115.186 1478.35 123.897 1478.35 135.627V318.903H1470.51L1306.35 112.631Z" fill="#F9F9FB"/>
<path d="M1662.16 86.4984C1654.84 86.4984 1647 86.7306 1638.64 87.1952C1620.74 88.1244 1607.38 90.3892 1598.56 93.9896C1589.84 97.5901 1582.64 103.804 1576.95 112.631C1571.72 120.761 1567.71 131.795 1564.92 145.732L1560.91 145.383L1564.05 81.0977H1799.83L1802.97 145.383L1798.96 145.732C1795.82 129.588 1790.89 117.393 1784.15 109.146C1777.52 100.784 1767.82 94.8027 1755.04 91.2022C1744.24 88.0663 1725.94 86.4984 1700.15 86.4984V264.199C1700.15 276.045 1700.79 284.872 1702.07 290.68C1703.46 296.371 1705.96 301.074 1709.56 304.791C1712.81 308.159 1716.47 310.598 1720.54 312.108C1724.72 313.618 1730.12 314.547 1736.75 314.896V318.903H1625.39V314.896C1632.13 314.547 1637.53 313.618 1641.6 312.108C1645.78 310.598 1649.5 308.159 1652.75 304.791C1656.35 301.074 1658.79 296.371 1660.07 290.68C1661.46 284.988 1662.16 276.162 1662.16 264.199V86.4984Z" fill="#F9F9FB"/>
<path fill-rule="evenodd" clip-rule="evenodd" d="M1194.85 138.589L1191.89 81.0977H1004.56V85.1046C1011.3 85.4531 1016.7 86.3822 1020.76 87.8921C1024.95 89.402 1028.61 91.841 1031.74 95.2092C1035.34 98.9258 1037.78 103.688 1039.06 109.495C1040.46 115.186 1041.15 123.955 1041.15 135.801V264.199C1041.15 276.045 1040.46 284.872 1039.06 290.68C1037.78 296.371 1035.34 301.074 1031.74 304.791C1028.49 308.159 1024.77 310.598 1020.59 312.108C1016.52 313.618 1011.18 314.547 1004.56 314.896V318.903H1212.45L1214.72 249.565L1210.71 249.39C1208.5 259.843 1206.06 268.264 1203.39 274.652C1200.84 281.04 1197.47 286.731 1193.29 291.725C1187.36 299.158 1179.69 304.675 1170.28 308.275C1160.87 311.76 1149.2 313.502 1135.26 313.502C1122.01 313.502 1111.32 311.585 1103.19 307.753C1095.17 303.804 1089.19 297.648 1085.24 289.286C1082.92 284.408 1081.35 278.368 1080.54 271.167C1079.72 263.85 1079.32 252.236 1079.32 236.324V196.429V191.028V86.4984H1119.22C1131.54 86.4984 1141.41 87.3694 1148.85 89.1116C1156.28 90.7376 1162.73 93.5831 1168.19 97.6482C1174.81 102.526 1179.87 108.159 1183.35 114.547C1186.84 120.935 1189.34 129.007 1190.85 138.763L1194.85 138.589Z" fill="#F9F9FB"/>
<path d="M1089.77 191.028H1079.32V196.429H1089.25C1097.85 196.429 1104.93 197.3 1110.51 199.042C1116.09 200.784 1120.62 203.513 1124.1 207.23C1127.7 211.063 1130.49 215.709 1132.47 221.167C1134.56 226.626 1136.13 233.827 1137.17 242.77H1141.18L1141.88 149.39L1137.87 149.216C1136.82 158.159 1135.49 164.954 1133.86 169.599C1132.35 174.129 1129.97 178.078 1126.72 181.446C1123.35 185.047 1118.99 187.544 1113.65 188.937C1108.3 190.331 1100.34 191.028 1089.77 191.028Z" fill="#F9F9FB"/>
</svg>
