<svg width="2393" height="464" viewBox="0 0 2393 464" fill="none" xmlns="http://www.w3.org/2000/svg">
<path d="M205.088 58.2667C193.876 58.2667 181.864 58.6222 169.052 59.3333C141.647 60.7556 121.182 64.2222 107.657 69.7333C94.3107 75.2444 83.2775 84.7556 74.5577 98.2667C66.5498 110.711 60.4103 127.6 56.1394 148.933L50 148.4L54.8048 50H415.964L420.769 148.4L414.629 148.933C409.824 124.222 402.261 105.556 391.94 92.9333C381.797 80.1333 366.937 70.9778 347.362 65.4667C330.813 60.6667 302.785 58.2667 263.279 58.2667V330.267C263.279 348.4 264.257 361.911 266.215 370.8C268.35 379.511 272.176 386.711 277.693 392.4C282.676 397.556 288.281 401.289 294.51 403.6C300.916 405.911 309.191 407.333 319.334 407.867V414H148.765V407.867C159.086 407.333 167.361 405.911 173.59 403.6C179.996 401.289 185.69 397.556 190.673 392.4C196.19 386.711 199.927 379.511 201.884 370.8C204.02 362.089 205.088 348.578 205.088 330.267V58.2667Z" fill="#F9F9FB"/>
<path d="M468.763 50H636.663V56.1333C621.003 56.1333 610.326 57.2889 604.631 59.6C599.827 61.7333 595.912 65.2 592.886 70C589.861 74.8 588.349 80.2222 588.349 86.2667C588.349 93.7333 591.196 104.044 596.89 117.2L603.831 133.733L686.847 336.4L744.771 161.733C752.245 139.333 755.982 122.622 755.982 111.6C755.982 103.422 754.469 95.5111 751.444 87.8667C748.597 80.0444 744.771 73.7333 739.966 68.9333C735.339 64.3111 730.001 61.0222 723.95 59.0667C718.078 57.1111 710.515 56.1333 701.261 56.1333V50H872.898V56.1333C862.399 56.1333 854.747 56.4889 849.942 57.2C845.315 57.9111 840.955 59.4222 836.862 61.7333C831.524 64.9333 827.164 69.5556 823.783 75.6C820.58 81.4667 818.978 87.8667 818.978 94.8C818.978 101.2 821.469 112.311 826.452 128.133L892.117 339.6L965.524 159.6C976.913 132.044 982.607 110.711 982.607 95.6C982.607 79.7778 977.358 68.5778 966.858 62C960.452 58.0889 950.753 56.1333 937.763 56.1333V50H1061.35V56.1333C1049.43 57.3778 1040.35 59.6889 1034.13 63.0667C1028.07 66.2667 1022.02 72.2222 1015.97 80.9333C1007.08 93.3778 995.954 115.867 982.607 148.4L872.898 414H861.954L766.926 130L670.564 414H658.552L539.233 127.067L531.225 107.6C525.709 94.4444 521.082 84.9333 517.345 79.0667C513.608 73.2 509.07 68.5778 503.731 65.2C499.46 62.3556 494.833 60.3111 489.851 59.0667C484.868 57.8222 477.839 56.8444 468.763 56.1333V50Z" fill="#F9F9FB"/>
<path d="M1582.3 98.2667V330.267C1582.3 348.578 1583.28 362.089 1585.23 370.8C1587.37 379.511 1591.19 386.711 1596.71 392.4C1601.69 397.556 1607.3 401.289 1613.53 403.6C1619.93 405.911 1628.21 407.333 1638.35 407.867V414H1515.3V407.867C1525.44 407.333 1533.63 405.911 1539.85 403.6C1546.26 401.289 1551.96 397.556 1556.94 392.4C1562.45 386.711 1566.19 379.511 1568.15 370.8C1570.28 361.911 1571.35 348.4 1571.35 330.267V133.467C1571.35 115.511 1570.28 102.178 1568.15 93.4667C1566.19 84.5778 1562.45 77.2889 1556.94 71.6C1552.13 66.4444 1546.53 62.7111 1540.12 60.4C1533.89 58.0889 1525.62 56.6667 1515.3 56.1333V50H1618.07L1834.81 326.267V133.733C1834.81 115.422 1833.75 101.911 1831.61 93.2C1829.65 84.4889 1825.92 77.2889 1820.4 71.6C1815.42 66.4444 1809.72 62.7111 1803.32 60.4C1797.09 58.0889 1788.9 56.6667 1778.76 56.1333V50H1901.81V56.1333C1884.02 56.1333 1870.14 61.2889 1860.17 71.6C1854.66 77.2889 1850.83 84.5778 1848.69 93.4667C1846.74 102.178 1845.76 115.511 1845.76 133.467V414H1833.75L1582.3 98.2667Z" fill="#F9F9FB"/>
<path d="M2127.32 58.2667C2116.11 58.2667 2104.1 58.6222 2091.28 59.3333C2063.88 60.7556 2043.41 64.2222 2029.89 69.7333C2016.54 75.2444 2005.51 84.7556 1996.79 98.2667C1988.78 110.711 1982.64 127.6 1978.37 148.933L1972.23 148.4L1977.04 50H2338.2L2343 148.4L2336.86 148.933C2332.06 124.222 2324.49 105.556 2314.17 92.9333C2304.03 80.1333 2289.17 70.9778 2269.59 65.4667C2253.04 60.6667 2225.02 58.2667 2185.51 58.2667V330.267C2185.51 348.4 2186.49 361.911 2188.45 370.8C2190.58 379.511 2194.41 386.711 2199.92 392.4C2204.91 397.556 2210.51 401.289 2216.74 403.6C2223.15 405.911 2231.42 407.333 2241.57 407.867V414H2071V407.867C2081.32 407.333 2089.59 405.911 2095.82 403.6C2102.23 401.289 2107.92 397.556 2112.9 392.4C2118.42 386.711 2122.16 379.511 2124.12 370.8C2126.25 362.089 2127.32 348.578 2127.32 330.267V58.2667Z" fill="#F9F9FB"/>
<path fill-rule="evenodd" clip-rule="evenodd" d="M1411.51 138L1406.98 50H1120.02V56.1333C1130.35 56.6667 1138.62 58.0889 1144.85 60.4C1151.26 62.7111 1156.86 66.4444 1161.67 71.6C1167.18 77.2889 1170.92 84.5778 1172.88 93.4667C1175.01 102.178 1176.08 115.6 1176.08 133.733V330.267C1176.08 348.4 1175.01 361.911 1172.88 370.8C1170.92 379.511 1167.18 386.711 1161.67 392.4C1156.68 397.556 1150.99 401.289 1144.58 403.6C1138.35 405.911 1130.17 407.333 1120.02 407.867V414H1438.47L1441.94 307.867L1435.8 307.6C1432.42 323.6 1428.69 336.489 1424.59 346.267C1420.68 356.044 1415.52 364.756 1409.11 372.4C1400.04 383.778 1388.29 392.222 1373.88 397.733C1359.46 403.067 1341.58 405.733 1320.22 405.733C1299.94 405.733 1283.56 402.8 1271.11 396.933C1258.83 390.889 1249.66 381.467 1243.61 368.667C1240.05 361.2 1237.65 351.956 1236.41 340.933C1235.16 329.733 1234.54 311.956 1234.54 287.6V226.533V218.267V58.2667H1295.67C1314.53 58.2667 1329.65 59.6 1341.04 62.2667C1352.43 64.7556 1362.31 69.1111 1370.67 75.3333C1380.82 82.8 1388.56 91.4222 1393.9 101.2C1399.23 110.978 1403.06 123.333 1405.37 138.267L1411.51 138Z" fill="#F9F9FB"/>
<path d="M1250.55 218.267H1234.54V226.533H1249.75C1262.92 226.533 1273.78 227.867 1282.32 230.533C1290.86 233.2 1297.8 237.378 1303.14 243.067C1308.66 248.933 1312.93 256.044 1315.95 264.4C1319.16 272.756 1321.56 283.778 1323.16 297.467H1329.3L1330.37 154.533L1324.23 154.267C1322.63 167.956 1320.58 178.356 1318.09 185.467C1315.77 192.4 1312.13 198.444 1307.14 203.6C1301.98 209.111 1295.31 212.933 1287.12 215.067C1278.94 217.2 1266.75 218.267 1250.55 218.267Z" fill="#F9F9FB"/>
</svg>
