<svg width="1831" height="1000" viewBox="0 0 1831 1000" fill="none" xmlns="http://www.w3.org/2000/svg">
<rect width="1831" height="1000" rx="25" fill="#0F0F0F"/>
<path d="M1041.71 323.138C1058.8 353.266 1073.53 424.562 995.754 468.715C917.98 512.868 913.185 562.034 920.509 581.098C904.782 564.661 881.219 522.613 904.647 482.713C931.491 436.994 1041.71 393.927 978.264 302.341C978.264 279.485 978.826 252.768 966.665 234.357C965.78 233.179 964.902 231.979 964.029 230.753C964.968 231.914 965.845 233.117 966.665 234.357C989.812 265.202 1016.71 280.558 1041.71 323.138Z" fill="#F9F9FB"/>
<path d="M938.812 195.158C946.091 207.557 967.922 256.443 967.922 289.238C896.648 219.155 859.093 138.258 945.177 89.3867C968.787 78.7479 1016.7 70.473 1029.34 116.866C1030.96 128.385 1030.39 152.429 1015.1 156.459C983.865 156.459 980.53 148.46 967.922 136.862C923.588 124.064 923.356 174.762 938.812 195.158Z" fill="#F9F9FB"/>
<path d="M1034.8 120.37C1039.03 135.893 1027.48 154.567 1020.56 161.164C1045.29 167.679 1045.51 199.606 1042.53 214.755C1089.38 168.683 1056.9 132.635 1034.8 120.37Z" fill="#F9F9FB"/>
<path d="M989.653 353.934C970.944 477.915 818.827 365.931 772.867 522.706C713.485 288.343 989.653 235.552 989.653 353.934Z" fill="#F9F9FB"/>
<path d="M887.639 515.507C888.327 491.812 898.658 474.642 902.085 468.715L879.384 468.715C876.288 472.925 864.249 498.68 887.639 515.507Z" fill="#F9F9FB"/>
<path d="M944.737 421.414C927.496 429.176 903.271 429.312 868.377 435.15C842.236 442.018 819.825 455.18 815.063 472.925C821.713 466.743 842.855 455.617 874.224 460.562C909.997 466.201 912.748 455.411 925.131 443.048C933.042 435.15 944.737 424.504 944.737 421.414Z" fill="#F9F9FB"/>
<path d="M268.264 686.498C260.945 686.498 253.103 686.731 244.738 687.195C226.847 688.124 213.487 690.389 204.657 693.99C195.944 697.59 188.741 703.804 183.048 712.631C177.821 720.761 173.812 731.795 171.024 745.732L167.016 745.383L170.153 681.098H405.933L409.07 745.383L405.062 745.732C401.925 729.588 396.987 717.393 390.249 709.146C383.627 700.784 373.926 694.803 361.147 691.202C350.342 688.066 332.045 686.498 306.253 686.498V864.199C306.253 876.045 306.892 884.872 308.17 890.68C309.565 896.371 312.062 901.074 315.664 904.791C318.917 908.159 322.576 910.598 326.642 912.108C330.825 913.618 336.227 914.547 342.849 914.896V918.903H231.494V914.896C238.232 914.547 243.634 913.618 247.701 912.108C251.883 910.598 255.601 908.159 258.854 904.791C262.455 901.074 264.895 896.371 266.173 890.68C267.567 884.988 268.264 876.162 268.264 864.199V686.498Z" fill="#F9F9FB"/>
<path d="M440.402 681.098H550.015V685.105C539.791 685.105 532.821 685.86 529.103 687.369C525.966 688.763 523.41 691.028 521.435 694.164C519.46 697.3 518.473 700.842 518.473 704.791C518.473 709.669 520.332 716.405 524.049 725L528.58 735.801L582.777 868.206L620.592 754.094C625.471 739.46 627.911 728.542 627.911 721.342C627.911 715.999 626.924 710.831 624.949 705.836C623.09 700.726 620.592 696.603 617.455 693.467C614.435 690.447 610.949 688.299 606.999 687.021C603.165 685.743 598.228 685.105 592.187 685.105V681.098H704.239V685.105C697.385 685.105 692.389 685.337 689.252 685.801C686.232 686.266 683.385 687.253 680.713 688.763C677.228 690.854 674.382 693.873 672.174 697.822C670.083 701.655 669.037 705.836 669.037 710.366C669.037 714.547 670.664 721.806 673.917 732.143L716.786 870.296L764.709 752.7C772.144 734.698 775.862 720.761 775.862 710.889C775.862 700.552 772.435 693.235 765.58 688.937C761.398 686.382 755.066 685.105 746.585 685.105V681.098H827.27V685.105C819.486 685.918 813.561 687.428 809.495 689.634C805.545 691.725 801.595 695.616 797.645 701.307C791.836 709.437 784.575 724.129 775.862 745.383L704.239 918.903H697.094L635.056 733.362L572.146 918.903H564.304L486.408 731.446L481.18 718.728C477.579 710.134 474.558 703.92 472.119 700.087C469.679 696.254 466.716 693.235 463.231 691.028C460.443 689.17 457.422 687.834 454.169 687.021C450.916 686.208 446.327 685.569 440.402 685.105V681.098Z" fill="#F9F9FB"/>
<path d="M1167.36 712.631V864.199C1167.36 876.162 1168 884.988 1169.28 890.68C1170.68 896.371 1173.17 901.074 1176.77 904.791C1180.03 908.159 1183.69 910.598 1187.75 912.108C1191.94 913.618 1197.34 914.547 1203.96 914.896V918.903H1123.62V914.896C1130.25 914.547 1135.59 913.618 1139.66 912.108C1143.84 910.598 1147.56 908.159 1150.81 904.791C1154.41 901.074 1156.85 896.371 1158.13 890.68C1159.52 884.872 1160.22 876.045 1160.22 864.199V735.627C1160.22 723.897 1159.52 715.186 1158.13 709.495C1156.85 703.688 1154.41 698.926 1150.81 695.209C1147.67 691.841 1144.01 689.402 1139.83 687.892C1135.76 686.382 1130.36 685.453 1123.62 685.105V681.098H1190.72L1332.22 861.585V735.801C1332.22 723.839 1331.52 715.012 1330.13 709.321C1328.85 703.63 1326.41 698.926 1322.81 695.209C1319.56 691.841 1315.84 689.402 1311.66 687.892C1307.59 686.382 1302.25 685.453 1295.62 685.105V681.098H1375.96V685.105C1364.34 685.105 1355.28 688.473 1348.77 695.209C1345.17 698.926 1342.67 703.688 1341.28 709.495C1340 715.186 1339.36 723.897 1339.36 735.627V918.903H1331.52L1167.36 712.631Z" fill="#F9F9FB"/>
<path d="M1523.18 686.498C1515.86 686.498 1508.02 686.731 1499.65 687.195C1481.76 688.124 1468.4 690.389 1459.57 693.99C1450.86 697.59 1443.66 703.804 1437.96 712.631C1432.73 720.761 1428.73 731.795 1425.94 745.732L1421.93 745.383L1425.07 681.098H1660.85L1663.98 745.383L1659.98 745.732C1656.84 729.588 1651.9 717.393 1645.16 709.146C1638.54 700.784 1628.84 694.803 1616.06 691.202C1605.26 688.066 1586.96 686.498 1561.17 686.498V864.199C1561.17 876.045 1561.81 884.872 1563.08 890.68C1564.48 896.371 1566.98 901.074 1570.58 904.791C1573.83 908.159 1577.49 910.598 1581.56 912.108C1585.74 913.618 1591.14 914.547 1597.76 914.896V918.903H1486.41V914.896C1493.15 914.547 1498.55 913.618 1502.61 912.108C1506.8 910.598 1510.51 908.159 1513.77 904.791C1517.37 901.074 1519.81 896.371 1521.09 890.68C1522.48 884.988 1523.18 876.162 1523.18 864.199V686.498Z" fill="#F9F9FB"/>
<path fill-rule="evenodd" clip-rule="evenodd" d="M1055.87 738.589L1052.91 681.098H865.573V685.105C872.311 685.453 877.714 686.382 881.78 687.892C885.962 689.402 889.622 691.841 892.758 695.209C896.36 698.926 898.799 703.688 900.077 709.495C901.472 715.186 902.169 723.955 902.169 735.801V864.199C902.169 876.045 901.472 884.872 900.077 890.68C898.799 896.371 896.36 901.074 892.758 904.791C889.505 908.159 885.788 910.598 881.605 912.108C877.539 913.618 872.195 914.547 865.573 914.896V918.903H1073.47L1075.74 849.565L1071.73 849.39C1069.52 859.843 1067.08 868.264 1064.41 874.652C1061.85 881.04 1058.48 886.731 1054.3 891.725C1048.38 899.158 1040.71 904.675 1031.3 908.275C1021.89 911.76 1010.21 913.502 996.271 913.502C983.027 913.502 972.339 911.585 964.207 907.753C956.191 903.804 950.208 897.648 946.258 889.286C943.934 884.408 942.366 878.368 941.552 871.167C940.739 863.85 940.333 852.236 940.333 836.324V796.429V791.028V686.498H980.239C992.554 686.498 1002.43 687.369 1009.86 689.112C1017.3 690.738 1023.75 693.583 1029.21 697.648C1035.83 702.526 1040.88 708.159 1044.37 714.547C1047.85 720.935 1050.35 729.007 1051.86 738.763L1055.87 738.589Z" fill="#F9F9FB"/>
<path d="M950.788 791.028H940.333V796.429H950.266C958.863 796.429 965.949 797.3 971.526 799.042C977.102 800.784 981.633 803.513 985.119 807.23C988.72 811.063 991.508 815.709 993.483 821.167C995.574 826.626 997.143 833.827 998.188 842.77H1002.2L1002.89 749.39L998.885 749.216C997.84 758.159 996.504 764.954 994.877 769.599C993.367 774.129 990.985 778.078 987.733 781.446C984.363 785.047 980.007 787.544 974.663 788.937C969.319 790.331 961.36 791.028 950.788 791.028Z" fill="#F9F9FB"/>
</svg>
