<svg width="1753" height="300" viewBox="0 0 1753 300" fill="none" xmlns="http://www.w3.org/2000/svg">
<path d="M166.145 145.224C176.385 163.301 185.212 206.079 138.599 232.57C91.9862 259.062 89.1124 288.562 93.5021 300C84.0764 290.138 69.9541 264.909 83.9952 240.969C100.084 213.538 166.145 187.697 128.117 132.746C128.117 119.032 128.454 103.002 121.165 91.9558C120.635 91.2489 120.108 90.5286 119.585 89.7932C120.148 90.4899 120.674 91.2115 121.165 91.9558C135.038 110.462 151.161 119.676 166.145 145.224Z" fill="#DE1A26"/>
<path d="M104.472 68.4365C108.835 75.8754 121.918 105.207 121.918 124.884C79.2014 82.8343 56.6932 34.296 108.287 4.97344C122.437 -1.40987 151.15 -6.37478 158.727 21.4609C159.702 28.3722 159.361 42.7991 150.195 45.2167C131.474 45.2167 129.475 40.4175 121.918 33.4585C95.3475 25.78 95.2085 56.1988 104.472 68.4365Z" fill="#DE1A26"/>
<path d="M162.001 23.5635C164.536 32.8772 157.613 44.0816 153.469 48.0397C168.29 51.949 168.42 71.1052 166.632 80.1947C194.714 52.551 175.246 30.9223 162.001 23.5635Z" fill="#DE1A26"/>
<path d="M134.943 163.702C123.729 238.09 32.5604 170.9 5.01462 264.965C-30.5754 124.347 134.943 92.6723 134.943 163.702Z" fill="#DE1A26"/>
<path d="M73.8018 260.646C74.2141 246.429 80.4061 236.126 82.4601 232.57L68.8542 232.57C66.9989 235.096 59.7836 250.549 73.8018 260.646Z" fill="#DE1A26"/>
<path d="M108.023 204.19C97.6895 208.847 83.1705 208.929 62.2574 212.431C46.59 216.552 33.1583 224.45 30.3041 235.096C34.2897 231.387 46.961 224.712 65.762 227.679C87.2016 231.062 88.8508 224.588 96.2722 217.17C101.014 212.431 108.023 206.044 108.023 204.19Z" fill="#DE1A26"/>
<path d="M357.248 36.4984C349.929 36.4984 342.087 36.7306 333.722 37.1952C315.831 38.1244 302.471 40.3892 293.641 43.9896C284.928 47.5901 277.725 53.8038 272.032 62.6308C266.804 70.7608 262.796 81.7945 260.008 95.7318L256 95.3834L259.137 31.0977H494.917L498.053 95.3834L494.045 95.7318C490.909 79.5878 485.971 67.3927 479.233 59.1464C472.611 50.7841 462.91 44.8027 450.131 41.2022C439.326 38.0663 421.029 36.4984 395.237 36.4984V214.199C395.237 226.045 395.876 234.872 397.154 240.68C398.548 246.371 401.046 251.074 404.648 254.791C407.901 258.159 411.56 260.598 415.626 262.108C419.809 263.618 425.211 264.547 431.833 264.896V268.903H320.478V264.896C327.216 264.547 332.618 263.618 336.684 262.108C340.867 260.598 344.584 258.159 347.837 254.791C351.439 251.074 353.879 246.371 355.157 240.68C356.551 234.988 357.248 226.162 357.248 214.199V36.4984Z" fill="#0F0F0F"/>
<path d="M529.386 31.0977H638.999V35.1046C628.775 35.1046 621.805 35.8596 618.087 37.3694C614.95 38.7632 612.394 41.028 610.419 44.1639C608.444 47.2997 607.457 50.8421 607.457 54.791C607.457 59.6691 609.316 66.4054 613.033 75.0001L617.564 85.8015L671.76 218.206L709.576 104.094C714.455 89.46 716.895 78.5425 716.895 71.3416C716.895 65.9989 715.907 60.8305 713.932 55.8363C712.074 50.726 709.576 46.6029 706.439 43.467C703.418 40.4473 699.933 38.2986 695.983 37.021C692.149 35.7434 687.212 35.1046 681.171 35.1046V31.0977H793.223V35.1046C786.368 35.1046 781.373 35.3369 778.236 35.8015C775.216 36.2661 772.369 37.2533 769.697 38.7632C766.212 40.8538 763.365 43.8735 761.158 47.8224C759.067 51.6551 758.021 55.8363 758.021 60.366C758.021 64.5471 759.648 71.8061 762.901 82.143L805.77 220.296L853.693 102.7C861.128 84.6981 864.846 70.7608 864.846 60.8886C864.846 50.5518 861.418 43.2347 854.564 38.9374C850.382 36.3822 844.05 35.1046 835.569 35.1046V31.0977H916.254V35.1046C908.47 35.9176 902.545 37.4275 898.479 39.6342C894.529 41.7248 890.579 45.6157 886.629 51.3067C880.82 59.4368 873.559 74.129 864.846 95.3834L793.223 268.903H786.078L724.04 83.3625L661.13 268.903H653.288L575.392 81.4461L570.164 68.7283C566.563 60.1337 563.542 53.92 561.102 50.0872C558.663 46.2545 555.7 43.2347 552.215 41.028C549.427 39.1697 546.406 37.834 543.153 37.021C539.9 36.208 535.311 35.5692 529.386 35.1046V31.0977Z" fill="#0F0F0F"/>
<path d="M1256.35 62.6308V214.199C1256.35 226.162 1256.99 234.988 1258.27 240.68C1259.66 246.371 1262.16 251.074 1265.76 254.791C1269.01 258.159 1272.67 260.598 1276.74 262.108C1280.92 263.618 1286.32 264.547 1292.94 264.896V268.903H1212.61V264.896C1219.23 264.547 1224.57 263.618 1228.64 262.108C1232.82 260.598 1236.54 258.159 1239.79 254.791C1243.39 251.074 1245.83 246.371 1247.11 240.68C1248.51 234.872 1249.2 226.045 1249.2 214.199V85.6273C1249.2 73.8967 1248.51 65.1859 1247.11 59.4949C1245.83 53.6877 1243.39 48.9258 1239.79 45.2092C1236.66 41.841 1233 39.402 1228.81 37.8921C1224.75 36.3822 1219.35 35.4531 1212.61 35.1046V31.0977H1279.7L1421.2 211.585V85.8015C1421.2 73.8387 1420.51 65.0117 1419.11 59.3207C1417.83 53.6296 1415.39 48.9258 1411.79 45.2092C1408.54 41.841 1404.82 39.402 1400.64 37.8921C1396.57 36.3822 1391.23 35.4531 1384.61 35.1046V31.0977H1464.94V35.1046C1453.33 35.1046 1444.26 38.4728 1437.76 45.2092C1434.16 48.9258 1431.66 53.6877 1430.26 59.4949C1428.99 65.1859 1428.35 73.8967 1428.35 85.6273V268.903H1420.51L1256.35 62.6308Z" fill="#0F0F0F"/>
<path d="M1612.16 36.4984C1604.84 36.4984 1597 36.7306 1588.64 37.1952C1570.74 38.1244 1557.38 40.3892 1548.56 43.9896C1539.84 47.5901 1532.64 53.8038 1526.95 62.6308C1521.72 70.7608 1517.71 81.7945 1514.92 95.7318L1510.91 95.3834L1514.05 31.0977H1749.83L1752.97 95.3834L1748.96 95.7318C1745.82 79.5878 1740.89 67.3927 1734.15 59.1464C1727.52 50.7841 1717.82 44.8027 1705.04 41.2022C1694.24 38.0663 1675.94 36.4984 1650.15 36.4984V214.199C1650.15 226.045 1650.79 234.872 1652.07 240.68C1653.46 246.371 1655.96 251.074 1659.56 254.791C1662.81 258.159 1666.47 260.598 1670.54 262.108C1674.72 263.618 1680.12 264.547 1686.75 264.896V268.903H1575.39V264.896C1582.13 264.547 1587.53 263.618 1591.6 262.108C1595.78 260.598 1599.5 258.159 1602.75 254.791C1606.35 251.074 1608.79 246.371 1610.07 240.68C1611.46 234.988 1612.16 226.162 1612.16 214.199V36.4984Z" fill="#0F0F0F"/>
<path fill-rule="evenodd" clip-rule="evenodd" d="M1144.85 88.5889L1141.89 31.0977H954.557V35.1046C961.295 35.4531 966.697 36.3822 970.764 37.8921C974.946 39.402 978.605 41.841 981.742 45.2092C985.344 48.9258 987.783 53.6877 989.061 59.4949C990.455 65.1859 991.153 73.9548 991.153 85.8015V214.199C991.153 226.045 990.455 234.872 989.061 240.68C987.783 246.371 985.344 251.074 981.742 254.791C978.489 258.159 974.772 260.598 970.589 262.108C966.523 263.618 961.179 264.547 954.557 264.896V268.903H1162.45L1164.72 199.565L1160.71 199.39C1158.5 209.843 1156.06 218.264 1153.39 224.652C1150.84 231.04 1147.47 236.731 1143.29 241.725C1137.36 249.158 1129.69 254.675 1120.28 258.275C1110.87 261.76 1099.2 263.502 1085.26 263.502C1072.01 263.502 1061.32 261.585 1053.19 257.753C1045.17 253.804 1039.19 247.648 1035.24 239.286C1032.92 234.408 1031.35 228.368 1030.54 221.167C1029.72 213.85 1029.32 202.236 1029.32 186.324V146.429V141.028V36.4984H1069.22C1081.54 36.4984 1091.41 37.3694 1098.85 39.1116C1106.28 40.7376 1112.73 43.5831 1118.19 47.6482C1124.81 52.5262 1129.87 58.1592 1133.35 64.5471C1136.84 70.9351 1139.34 79.0071 1140.85 88.7632L1144.85 88.5889Z" fill="#0F0F0F"/>
<path d="M1039.77 141.028H1029.32V146.429H1039.25C1047.85 146.429 1054.93 147.3 1060.51 149.042C1066.09 150.784 1070.62 153.513 1074.1 157.23C1077.7 161.063 1080.49 165.709 1082.47 171.167C1084.56 176.626 1086.13 183.827 1087.17 192.77H1091.18L1091.88 99.3903L1087.87 99.2161C1086.82 108.159 1085.49 114.954 1083.86 119.599C1082.35 124.129 1079.97 128.078 1076.72 131.446C1073.35 135.047 1068.99 137.544 1063.65 138.937C1058.3 140.331 1050.34 141.028 1039.77 141.028Z" fill="#0F0F0F"/>
</svg>
